<svg id="icon-bag" width="20" height="20" viewBox="0 0 20 20" fill="none" xmlns="http://www.w3.org/2000/svg">
    <path fill-rule="evenodd" clip-rule="evenodd" d="M2.08398 4.78733C2.08398 4.44641 2.36035 4.17004 2.70127 4.17004H17.2966C17.6375 4.17004 17.9139 4.44641 17.9139 4.78733V19.3827C17.9139 19.7236 17.6375 19.9999 17.2966 19.9999H2.70127C2.36035 19.9999 2.08398 19.7236 2.08398 19.3827V4.78733ZM3.31855 5.40461V18.7654H16.6793V5.40461H3.31855Z" fill="black"></path>
    <path fill-rule="evenodd" clip-rule="evenodd" d="M5.21143 4.78738C5.21143 2.14338 7.35481 0 9.99881 0C12.6428 0 14.7862 2.14338 14.7862 4.78738H13.5516C13.5516 2.82522 11.961 1.23457 9.99881 1.23457C8.03664 1.23457 6.44599 2.82522 6.44599 4.78738H5.21143Z" fill="black"></path>
  </svg>