<svg xmlns="http://www.w3.org/2000/svg" width="28" height="28" viewBox="0 0 28 28" fill="none"><path d="M14.7736 0.874134V1.30527L14.8053 1.55841C14.8053 1.68894 14.8053 1.81551 14.8488 1.94208C14.8923 2.0647 14.8488 2.12403 14.8923 2.21896C14.9358 2.31389 14.9279 2.45628 14.9516 2.57494C14.9714 2.6936 14.9872 2.7648 15.011 2.85973C15.0307 2.95861 15.0545 3.08518 15.0822 3.19989C15.1098 3.31459 15.1296 3.38974 15.1533 3.48467C15.1731 3.58356 15.2087 3.70617 15.2404 3.81297C15.272 3.91976 15.2997 4.00282 15.3274 4.09775L15.4263 4.41418L15.5212 4.69501L15.6359 5.00749L15.7427 5.28436C15.7862 5.3872 15.8218 5.49004 15.8732 5.58497L15.9919 5.86184L16.1343 6.15454L16.2688 6.4235L16.4151 6.70829L16.5615 6.96539L16.7236 7.24226L16.8818 7.49541L17.0559 7.76042L17.226 8.0096C17.2853 8.09662 17.3446 8.18364 17.4079 8.26275L17.5859 8.50007C17.6492 8.58709 17.7164 8.66619 17.7797 8.74135L17.9696 8.97471L18.1752 9.20808C18.2385 9.28323 18.3097 9.35838 18.3809 9.42958L18.5906 9.65108L18.8002 9.86071L19.0256 10.0703L19.2471 10.2681L19.4845 10.4659L19.7099 10.6478L20.0066 10.8219L20.236 10.9959L20.4931 11.1699L20.7344 11.3321L21.0033 11.4943L21.2525 11.6406L21.5373 11.7909L21.7865 11.9135L22.0871 12.052L22.3363 12.1667L22.6606 12.2893L22.8979 12.3803L23.2658 12.5029L23.4833 12.5662C23.6416 12.6136 23.8077 12.6572 23.9698 12.6967L24.0766 12.7244C24.2744 12.7719 24.4801 12.8114 24.6858 12.847L24.8756 12.8747L25.3068 12.934H25.5559C25.6865 12.934 25.8091 12.934 25.9396 12.9657H27.2963V0H14.7578V0.648679L14.7895 0.870181L14.7736 0.874134Z" fill="#262821"></path><path d="M23.6166 19.1575C23.6166 18.7382 23.5533 18.3229 23.4267 17.9195C23.3871 17.7889 23.3397 17.6624 23.2883 17.5358C22.9204 16.6656 22.2678 15.9457 21.4371 15.4948C21.1998 15.3683 20.9467 15.2694 20.6896 15.1903C20.4246 15.1072 20.1517 15.0518 19.8748 15.0281C19.594 15.0004 19.3052 15.0004 19.0244 15.0281C18.7475 15.0558 18.4785 15.1112 18.2135 15.1903C18.083 15.2338 17.9564 15.2773 17.8299 15.3327C17.2959 15.5581 16.8133 15.8943 16.4178 16.3175C16.0223 16.7408 15.7177 17.2431 15.5239 17.7929C15.3301 18.3427 15.2549 18.9241 15.3024 19.5016C15.3498 20.0791 15.516 20.6447 15.7889 21.1549C15.8126 21.1945 15.8403 21.2341 15.8601 21.2776C15.9273 21.3883 15.9985 21.4991 16.0776 21.6059C16.5918 22.3178 17.3196 22.8518 18.1542 23.1247C18.9888 23.3976 19.8906 23.4016 20.7291 23.1326C21.5677 22.8637 22.2955 22.3336 22.8136 21.6217C23.3318 20.9097 23.6126 20.0514 23.6126 19.1733V19.1535L23.6166 19.1575Z" fill="#262821"></path><path d="M10.5688 3.81006L0.700195 6.93084L7.36498 28.001C13.1319 22.9224 14.3581 13.9753 10.5728 3.81006H10.5688Z" fill="#262821"></path></svg>