<svg id="icon-search" width="22" height="22" viewBox="0 0 22 22" fill="none" xmlns="http://www.w3.org/2000/svg">
    <path fill-rule="evenodd" clip-rule="evenodd" d="M9.48197 1.68395C5.23525 1.68395 1.79259 5.1266 1.79259 9.37333C1.79259 13.6201 5.23525 17.0627 9.48197 17.0627C13.7287 17.0627 17.1714 13.6201 17.1714 9.37333C17.1714 5.1266 13.7287 1.68395 9.48197 1.68395ZM0.43457 9.37333C0.43457 4.37659 4.48523 0.325928 9.48197 0.325928C14.4787 0.325928 18.5294 4.37659 18.5294 9.37333C18.5294 14.3701 14.4787 18.4207 9.48197 18.4207C4.48523 18.4207 0.43457 14.3701 0.43457 9.37333Z" fill="black"></path>
    <path fill-rule="evenodd" clip-rule="evenodd" d="M15.12 15.0674C15.3851 14.8022 15.8151 14.8022 16.0802 15.0674L21.2193 20.2065C21.4844 20.4716 21.4844 20.9016 21.2193 21.1667C20.9541 21.4319 20.5242 21.4319 20.259 21.1667L15.12 16.0277C14.8548 15.7625 14.8548 15.3326 15.12 15.0674Z" fill="black"></path>
  </svg>