<svg id="icon-account" width="20" height="20" viewBox="0 0 20 20" fill="none" xmlns="http://www.w3.org/2000/svg">
    <path fill-rule="evenodd" clip-rule="evenodd" d="M10.0016 5.1844C8.27546 5.1844 6.87617 6.58369 6.87617 8.3098C6.87617 10.0359 8.27546 11.4352 10.0016 11.4352C11.7277 11.4352 13.127 10.0359 13.127 8.3098C13.127 6.58369 11.7277 5.1844 10.0016 5.1844ZM5.6416 8.3098C5.6416 5.90186 7.59363 3.94983 10.0016 3.94983C12.4095 3.94983 14.3615 5.90186 14.3615 8.3098C14.3615 10.7178 12.4095 12.6698 10.0016 12.6698C7.59363 12.6698 5.6416 10.7178 5.6416 8.3098Z" fill="black"></path>
    <path fill-rule="evenodd" clip-rule="evenodd" d="M2.52881 16.0718C3.97077 13.3206 6.76668 11.4359 9.99841 11.4359C13.2539 11.4359 16.067 13.3484 17.4996 16.1325L16.4018 16.6974C15.1612 14.2863 12.75 12.6705 9.99841 12.6705C7.26677 12.6705 4.87081 14.2628 3.62228 16.6449L2.52881 16.0718Z" fill="black"></path>
    <path fill-rule="evenodd" clip-rule="evenodd" d="M10 1.23457C5.15899 1.23457 1.23457 5.15899 1.23457 10C1.23457 14.841 5.15899 18.7654 10 18.7654C14.841 18.7654 18.7654 14.841 18.7654 10C18.7654 5.15899 14.841 1.23457 10 1.23457ZM0 10C0 4.47715 4.47715 0 10 0C15.5228 0 20 4.47715 20 10C20 15.5228 15.5228 20 10 20C4.47715 20 0 15.5228 0 10Z" fill="black"></path>
  </svg>